<?xml version="1.0" encoding="iso-8859-1"?>
<!-- Generator: Adobe Illustrator 18.0.0, SVG Export Plug-In . SVG Version: 6.00 Build 0)  -->
<!DOCTYPE svg PUBLIC "-//W3C//DTD SVG 1.1//EN" "http://www.w3.org/Graphics/SVG/1.1/DTD/svg11.dtd">
<svg version="1.1" id="Capa_1" xmlns="http://www.w3.org/2000/svg" xmlns:xlink="http://www.w3.org/1999/xlink" x="0px" y="0px"
	 viewBox="0 0 297.5 297.5" style="enable-background:new 0 0 297.5 297.5;" xml:space="preserve">
<g id="XMLID_38_">
	<g>
		<path style="fill:#A38671;" d="M252.575,277.55h-26.94c9.2-50.91-0.02-96.18-9.84-125.99c-2.29-6.95-4.7-13.37-7.09-19.21
			C228.455,154.75,250.865,197.64,252.575,277.55z"/>
		<path style="fill:#16A085;" d="M128.055,81.75c7.15,0.12,14.33,2.63,20.83,6.01c-8.28,0.13-16.05,1.06-20.91,3.57
			c-7.2,3.72-12.82,9.31-16.57,16.41l-17.95,8.98c1.24-7.55,4.71-17.13,13.5-25.92C113.175,84.57,120.065,81.59,128.055,81.75z"/>
		<path style="fill:#16A085;" d="M149.725,107.45c1,0,2.04,0.01,3.11,0.03c-12.12,12.49-19.44,28.45-23.82,42.28
			c-3.48-11.18-4.19-20.88-1.96-28.41c1.7-5.77,5.05-9.98,9.96-12.51C138.825,107.9,143.505,107.45,149.725,107.45z"/>
		<path style="fill:#16A085;" d="M206.565,20.52l-10.21,19.57c-1.91,1.12-3.71,2.39-5.37,3.85c-6.22,5.49-10.94,18.22-14.23,30.3
			c-2.94-6.04-5.05-12.6-5.16-19.13c-0.13-7.98,2.83-14.88,9.05-21.1C189.425,25.23,199.005,21.76,206.565,20.52z"/>
		<path style="fill:#16A085;" d="M246.765,79.29c-1.85-0.73-3.78-1.4-5.8-2c-11.53-3.45-27.51-5.04-45.26,2.44
			c2.86-10.63,6.04-18.96,8.33-21.02c2.71-2.4,7.37-4.26,12.82-4.26c2.68,0,5.55,0.45,8.47,1.51
			C234.405,59.23,241.715,67.29,246.765,79.29z"/>
		<path style="fill:#FFA800;" d="M187.085,277.55h-141.7c4.39-35.21,34.48-62.56,70.85-62.56
			C152.615,214.99,182.705,242.34,187.085,277.55z"/>
		<path d="M278.785,277.55c5.44,0,9.85,4.41,9.85,9.85s-4.41,9.85-9.85,9.85H18.715c-5.44,0-9.85-4.41-9.85-9.85
			s4.41-9.85,9.85-9.85h6.83c4.48-46.1,43.44-82.26,90.69-82.26c45.76,0,83.74,33.9,90.16,77.9
			c13.44-75.88-17.17-139.44-28.94-160.32c-31.02,18.6-35.1,68.67-35.14,69.21c-0.32,4.32-3.42,7.92-7.64,8.88
			c-0.73,0.17-1.46,0.25-2.18,0.25c-3.48,0-6.77-1.85-8.55-4.96c-13.19-23.01-17.5-40.74-17.82-53.84l-17.99,8.99
			c-1.38,0.7-2.89,1.04-4.4,1.04c-1.46,0-2.91-0.32-4.25-0.96c-2.75-1.31-4.73-3.82-5.38-6.78c-0.28-1.31-6.68-32.24,18.91-57.84
			c10.08-10.07,21.99-15.04,35.45-14.81c8.86,0.16,17.44,2.68,25.22,6.22c-1.05-4.15-1.71-8.41-1.79-12.75
			c-0.24-13.44,4.74-25.36,14.82-35.44c25.6-25.6,56.53-19.2,57.83-18.92c2.97,0.65,5.47,2.64,6.79,5.38
			c1.31,2.74,1.28,5.93-0.08,8.65l-9.9,19.8c3.58,0.38,7.16,1.17,10.66,2.43c12.15,4.39,33.53,18.16,40.25,61.14
			c0.64,4.16-1.42,8.27-5.14,10.24c-1.45,0.76-3.03,1.14-4.59,1.14c-2.44,0-4.86-0.91-6.72-2.65c-1.2-1.1-25.16-22.58-55.2-8.09
			c8.26,5.51,18.68,14.23,28.97,27.66c27.04,35.26,41.37,85.93,42.69,150.69H278.785z M225.635,277.55h26.94
			c-1.71-79.91-24.12-122.8-43.87-145.2c2.39,5.84,4.8,12.26,7.09,19.21C225.615,181.37,234.835,226.64,225.635,277.55z
			 M240.965,77.29c2.02,0.6,3.95,1.27,5.8,2c-5.05-12-12.36-20.06-21.44-23.33c-2.92-1.06-5.79-1.51-8.47-1.51
			c-5.45,0-10.11,1.86-12.82,4.26c-2.29,2.06-5.47,10.39-8.33,21.02C213.455,72.25,229.435,73.84,240.965,77.29z M196.355,40.09
			l10.21-19.57c-7.56,1.24-17.14,4.71-25.92,13.49c-6.22,6.22-9.18,13.12-9.05,21.1c0.11,6.53,2.22,13.09,5.16,19.13
			c3.29-12.08,8.01-24.81,14.23-30.3C192.645,42.48,194.445,41.21,196.355,40.09z M45.385,277.55h141.7
			c-4.38-35.21-34.47-62.56-70.85-62.56C79.865,214.99,49.775,242.34,45.385,277.55z M152.835,107.48
			c-1.07-0.02-2.11-0.03-3.11-0.03c-6.22,0-10.9,0.45-12.71,1.39c-4.91,2.53-8.26,6.74-9.96,12.51c-2.23,7.53-1.52,17.23,1.96,28.41
			C133.395,135.93,140.715,119.97,152.835,107.48z M148.885,87.76c-6.5-3.38-13.68-5.89-20.83-6.01c-7.99-0.16-14.88,2.82-21.1,9.05
			c-8.79,8.79-12.26,18.37-13.5,25.92l17.95-8.98c3.75-7.1,9.37-12.69,16.57-16.41C132.835,88.82,140.605,87.89,148.885,87.76z"/>
	</g>
	<g>
	</g>
</g>
<g>
</g>
<g>
</g>
<g>
</g>
<g>
</g>
<g>
</g>
<g>
</g>
<g>
</g>
<g>
</g>
<g>
</g>
<g>
</g>
<g>
</g>
<g>
</g>
<g>
</g>
<g>
</g>
<g>
</g>
</svg>
